<mxfile host="Electron" modified="2024-09-28T09:09:05.372Z" agent="Mozilla/5.0 (Windows NT 10.0; Win64; x64) AppleWebKit/537.36 (KHTML, like Gecko) draw.io/24.5.3 Chrome/124.0.6367.207 Electron/30.0.6 Safari/537.36" etag="axQlRp77iryhwvvARvuE" version="24.5.3" type="device">
  <diagram name="Strona-1" id="TiVgnp6QGtjyehTn7HYn">
    <mxGraphModel dx="1610" dy="2375" grid="1" gridSize="10" guides="1" tooltips="1" connect="1" arrows="1" fold="1" page="1" pageScale="1" pageWidth="827" pageHeight="1169" math="0" shadow="0">
      <root>
        <mxCell id="0" />
        <mxCell id="1" parent="0" />
        <mxCell id="60fGq-lb4OGC0_xzezEM-1" value="" style="rounded=0;whiteSpace=wrap;html=1;" vertex="1" parent="1">
          <mxGeometry x="120" y="470" width="890" height="470" as="geometry" />
        </mxCell>
        <mxCell id="60fGq-lb4OGC0_xzezEM-2" value="" style="rounded=0;whiteSpace=wrap;html=1;" vertex="1" parent="1">
          <mxGeometry x="120" y="470" width="890" height="60" as="geometry" />
        </mxCell>
        <mxCell id="60fGq-lb4OGC0_xzezEM-3" value="HELP" style="rounded=0;whiteSpace=wrap;html=1;" vertex="1" parent="1">
          <mxGeometry x="800" y="470" width="120" height="60" as="geometry" />
        </mxCell>
        <mxCell id="60fGq-lb4OGC0_xzezEM-4" value="MENU&lt;div&gt;Expandable menu - the same on all pages&lt;/div&gt;" style="rounded=0;whiteSpace=wrap;html=1;" vertex="1" parent="1">
          <mxGeometry x="120" y="470" width="680" height="60" as="geometry" />
        </mxCell>
        <mxCell id="60fGq-lb4OGC0_xzezEM-5" value="USER" style="rounded=0;whiteSpace=wrap;html=1;" vertex="1" parent="1">
          <mxGeometry x="920" y="470" width="90" height="60" as="geometry" />
        </mxCell>
        <mxCell id="60fGq-lb4OGC0_xzezEM-6" value="LEFT LIST&lt;div&gt;List of tenants or accounts or ...&lt;/div&gt;" style="rounded=0;whiteSpace=wrap;html=1;align=left;" vertex="1" parent="1">
          <mxGeometry x="120" y="570" width="220" height="310" as="geometry" />
        </mxCell>
        <mxCell id="60fGq-lb4OGC0_xzezEM-7" value="FOOTER&lt;div&gt;Copyrights&lt;/div&gt;" style="rounded=0;whiteSpace=wrap;html=1;" vertex="1" parent="1">
          <mxGeometry x="120" y="880" width="890" height="60" as="geometry" />
        </mxCell>
        <mxCell id="60fGq-lb4OGC0_xzezEM-8" value="CONTENT" style="rounded=0;whiteSpace=wrap;html=1;align=left;" vertex="1" parent="1">
          <mxGeometry x="340" y="570" width="670" height="310" as="geometry" />
        </mxCell>
        <mxCell id="60fGq-lb4OGC0_xzezEM-10" value="BREADCRUMBS" style="rounded=0;whiteSpace=wrap;html=1;align=left;" vertex="1" parent="1">
          <mxGeometry x="120" y="530" width="890" height="40" as="geometry" />
        </mxCell>
        <mxCell id="60fGq-lb4OGC0_xzezEM-12" value="LOGIN PAGE 1&lt;div&gt;&lt;br&gt;&lt;/div&gt;&lt;div&gt;&lt;br&gt;&lt;/div&gt;&lt;div&gt;&lt;br&gt;&lt;/div&gt;&lt;div&gt;&lt;br&gt;&lt;/div&gt;&lt;div&gt;&lt;br&gt;&lt;/div&gt;" style="rounded=0;whiteSpace=wrap;html=1;" vertex="1" parent="1">
          <mxGeometry x="120" y="-50" width="890" height="470" as="geometry" />
        </mxCell>
        <mxCell id="60fGq-lb4OGC0_xzezEM-13" value="" style="rounded=0;whiteSpace=wrap;html=1;" vertex="1" parent="1">
          <mxGeometry x="590" y="175" width="120" height="20" as="geometry" />
        </mxCell>
        <mxCell id="60fGq-lb4OGC0_xzezEM-14" value="User name" style="text;html=1;align=center;verticalAlign=middle;whiteSpace=wrap;rounded=0;" vertex="1" parent="1">
          <mxGeometry x="470" y="165" width="90" height="30" as="geometry" />
        </mxCell>
        <mxCell id="60fGq-lb4OGC0_xzezEM-15" value="LOGIN PAGE 2&lt;div&gt;&lt;br&gt;&lt;/div&gt;&lt;div&gt;&lt;br&gt;&lt;/div&gt;&lt;div&gt;&lt;br&gt;&lt;/div&gt;&lt;div&gt;&lt;br&gt;&lt;/div&gt;&lt;div&gt;&lt;br&gt;&lt;/div&gt;" style="rounded=0;whiteSpace=wrap;html=1;" vertex="1" parent="1">
          <mxGeometry x="1040" y="-50" width="890" height="470" as="geometry" />
        </mxCell>
        <mxCell id="60fGq-lb4OGC0_xzezEM-17" value="User name" style="text;html=1;align=center;verticalAlign=middle;whiteSpace=wrap;rounded=0;" vertex="1" parent="1">
          <mxGeometry x="1390" y="165" width="90" height="30" as="geometry" />
        </mxCell>
        <mxCell id="60fGq-lb4OGC0_xzezEM-18" value="" style="rounded=0;whiteSpace=wrap;html=1;" vertex="1" parent="1">
          <mxGeometry x="1510" y="205" width="120" height="20" as="geometry" />
        </mxCell>
        <mxCell id="60fGq-lb4OGC0_xzezEM-19" value="Password" style="text;html=1;align=center;verticalAlign=middle;whiteSpace=wrap;rounded=0;" vertex="1" parent="1">
          <mxGeometry x="1390" y="195" width="90" height="30" as="geometry" />
        </mxCell>
        <mxCell id="60fGq-lb4OGC0_xzezEM-20" value="provided_on_page_1" style="text;html=1;align=center;verticalAlign=middle;whiteSpace=wrap;rounded=0;" vertex="1" parent="1">
          <mxGeometry x="1510" y="165" width="90" height="30" as="geometry" />
        </mxCell>
        <mxCell id="60fGq-lb4OGC0_xzezEM-21" value="&lt;div&gt;User has been logged out&lt;/div&gt;" style="rounded=0;whiteSpace=wrap;html=1;" vertex="1" parent="1">
          <mxGeometry x="120" y="980" width="890" height="470" as="geometry" />
        </mxCell>
        <mxCell id="60fGq-lb4OGC0_xzezEM-24" value="&lt;div&gt;REGISTER ACCOUNT PAGE&lt;/div&gt;&lt;div&gt;&lt;br&gt;&lt;/div&gt;&lt;div&gt;&lt;br&gt;&lt;/div&gt;&lt;div&gt;&lt;span style=&quot;color: rgba(0, 0, 0, 0); font-family: monospace; font-size: 0px; text-align: start; text-wrap: nowrap;&quot;&gt;%3CmxGraphModel%3E%3Croot%3E%3CmxCell%20id%3D%220%22%2F%3E%3CmxCell%20id%3D%221%22%20parent%3D%220%22%2F%3E%3CmxCell%20id%3D%222%22%20value%3D%22LOGIN%20PAGE%201%26lt%3Bdiv%26gt%3B%26lt%3Bbr%26gt%3B%26lt%3B%2Fdiv%26gt%3B%26lt%3Bdiv%26gt%3B%26lt%3Bbr%26gt%3B%26lt%3B%2Fdiv%26gt%3B%26lt%3Bdiv%26gt%3B%26lt%3Bbr%26gt%3B%26lt%3B%2Fdiv%26gt%3B%26lt%3Bdiv%26gt%3B%26lt%3Bbr%26gt%3B%26lt%3B%2Fdiv%26gt%3B%26lt%3Bdiv%26gt%3B%26lt%3Bbr%26gt%3B%26lt%3B%2Fdiv%26gt%3B%22%20style%3D%22rounded%3D0%3BwhiteSpace%3Dwrap%3Bhtml%3D1%3B%22%20vertex%3D%221%22%20parent%3D%221%22%3E%3CmxGeometry%20x%3D%22120%22%20y%3D%22-50%22%20width%3D%22890%22%20height%3D%22470%22%20as%3D%22geometry%22%2F%3E%3C%2FmxCell%3E%3CmxCell%20id%3D%223%22%20value%3D%22%22%20style%3D%22rounded%3D0%3BwhiteSpace%3Dwrap%3Bhtml%3D1%3B%22%20vertex%3D%221%22%20parent%3D%221%22%3E%3CmxGeometry%20x%3D%22590%22%20y%3D%22175%22%20width%3D%22120%22%20height%3D%2220%22%20as%3D%22geometry%22%2F%3E%3C%2FmxCell%3E%3CmxCell%20id%3D%224%22%20value%3D%22User%20name%22%20style%3D%22text%3Bhtml%3D1%3Balign%3Dcenter%3BverticalAlign%3Dmiddle%3BwhiteSpace%3Dwrap%3Brounded%3D0%3B%22%20vertex%3D%221%22%20parent%3D%221%22%3E%3CmxGeometry%20x%3D%22470%22%20y%3D%22165%22%20width%3D%2290%22%20height%3D%2230%22%20as%3D%22geometry%22%2F%3E%3C%2FmxCell%3E%3C%2Froot%3E%3C%2FmxGraphModel%3E&lt;/span&gt;&lt;br&gt;&lt;/div&gt;&lt;div&gt;&lt;br&gt;&lt;/div&gt;&lt;div&gt;&lt;br&gt;&lt;/div&gt;&lt;div&gt;&lt;br&gt;&lt;/div&gt;" style="rounded=0;whiteSpace=wrap;html=1;" vertex="1" parent="1">
          <mxGeometry x="120" y="-540" width="890" height="470" as="geometry" />
        </mxCell>
        <mxCell id="60fGq-lb4OGC0_xzezEM-25" value="" style="rounded=0;whiteSpace=wrap;html=1;" vertex="1" parent="1">
          <mxGeometry x="590" y="-315" width="120" height="20" as="geometry" />
        </mxCell>
        <mxCell id="60fGq-lb4OGC0_xzezEM-26" value="User name" style="text;html=1;align=center;verticalAlign=middle;whiteSpace=wrap;rounded=0;" vertex="1" parent="1">
          <mxGeometry x="470" y="-325" width="90" height="30" as="geometry" />
        </mxCell>
        <mxCell id="60fGq-lb4OGC0_xzezEM-27" value="" style="rounded=0;whiteSpace=wrap;html=1;" vertex="1" parent="1">
          <mxGeometry x="590" y="-280" width="120" height="20" as="geometry" />
        </mxCell>
        <mxCell id="60fGq-lb4OGC0_xzezEM-28" value="Email" style="text;html=1;align=center;verticalAlign=middle;whiteSpace=wrap;rounded=0;" vertex="1" parent="1">
          <mxGeometry x="470" y="-295" width="90" height="30" as="geometry" />
        </mxCell>
        <mxCell id="60fGq-lb4OGC0_xzezEM-32" style="edgeStyle=orthogonalEdgeStyle;rounded=0;orthogonalLoop=1;jettySize=auto;html=1;" edge="1" parent="1" source="60fGq-lb4OGC0_xzezEM-29" target="60fGq-lb4OGC0_xzezEM-31">
          <mxGeometry relative="1" as="geometry" />
        </mxCell>
        <mxCell id="60fGq-lb4OGC0_xzezEM-39" style="edgeStyle=orthogonalEdgeStyle;rounded=0;orthogonalLoop=1;jettySize=auto;html=1;entryX=0;entryY=0.5;entryDx=0;entryDy=0;" edge="1" parent="1" source="60fGq-lb4OGC0_xzezEM-29" target="60fGq-lb4OGC0_xzezEM-38">
          <mxGeometry relative="1" as="geometry" />
        </mxCell>
        <mxCell id="60fGq-lb4OGC0_xzezEM-41" style="edgeStyle=orthogonalEdgeStyle;rounded=0;orthogonalLoop=1;jettySize=auto;html=1;entryX=0;entryY=0.25;entryDx=0;entryDy=0;" edge="1" parent="1" source="60fGq-lb4OGC0_xzezEM-29" target="60fGq-lb4OGC0_xzezEM-40">
          <mxGeometry relative="1" as="geometry" />
        </mxCell>
        <mxCell id="60fGq-lb4OGC0_xzezEM-29" value="&lt;b&gt;&lt;font style=&quot;font-size: 14px;&quot;&gt;/login&lt;/font&gt;&lt;/b&gt;" style="text;html=1;align=center;verticalAlign=middle;whiteSpace=wrap;rounded=0;" vertex="1" parent="1">
          <mxGeometry x="150" y="-1050" width="60" height="30" as="geometry" />
        </mxCell>
        <mxCell id="60fGq-lb4OGC0_xzezEM-42" style="edgeStyle=orthogonalEdgeStyle;rounded=0;orthogonalLoop=1;jettySize=auto;html=1;exitX=0.5;exitY=0;exitDx=0;exitDy=0;entryX=0.5;entryY=0;entryDx=0;entryDy=0;" edge="1" parent="1" source="60fGq-lb4OGC0_xzezEM-30" target="60fGq-lb4OGC0_xzezEM-29">
          <mxGeometry relative="1" as="geometry" />
        </mxCell>
        <mxCell id="60fGq-lb4OGC0_xzezEM-30" value="&lt;b&gt;&lt;font style=&quot;font-size: 14px;&quot;&gt;/logout&lt;/font&gt;&lt;/b&gt;" style="text;html=1;align=center;verticalAlign=middle;whiteSpace=wrap;rounded=0;" vertex="1" parent="1">
          <mxGeometry x="610" y="-1050" width="60" height="30" as="geometry" />
        </mxCell>
        <mxCell id="60fGq-lb4OGC0_xzezEM-35" style="edgeStyle=orthogonalEdgeStyle;rounded=0;orthogonalLoop=1;jettySize=auto;html=1;entryX=0;entryY=0.5;entryDx=0;entryDy=0;" edge="1" parent="1" source="60fGq-lb4OGC0_xzezEM-31" target="60fGq-lb4OGC0_xzezEM-34">
          <mxGeometry relative="1" as="geometry" />
        </mxCell>
        <mxCell id="60fGq-lb4OGC0_xzezEM-37" style="edgeStyle=orthogonalEdgeStyle;rounded=0;orthogonalLoop=1;jettySize=auto;html=1;entryX=0;entryY=0.5;entryDx=0;entryDy=0;" edge="1" parent="1" source="60fGq-lb4OGC0_xzezEM-31" target="60fGq-lb4OGC0_xzezEM-30">
          <mxGeometry relative="1" as="geometry" />
        </mxCell>
        <mxCell id="60fGq-lb4OGC0_xzezEM-46" style="edgeStyle=orthogonalEdgeStyle;rounded=0;orthogonalLoop=1;jettySize=auto;html=1;entryX=0;entryY=0.5;entryDx=0;entryDy=0;" edge="1" parent="1" source="60fGq-lb4OGC0_xzezEM-31" target="60fGq-lb4OGC0_xzezEM-45">
          <mxGeometry relative="1" as="geometry" />
        </mxCell>
        <mxCell id="60fGq-lb4OGC0_xzezEM-48" style="edgeStyle=orthogonalEdgeStyle;rounded=0;orthogonalLoop=1;jettySize=auto;html=1;entryX=0;entryY=0.5;entryDx=0;entryDy=0;" edge="1" parent="1" source="60fGq-lb4OGC0_xzezEM-31" target="60fGq-lb4OGC0_xzezEM-47">
          <mxGeometry relative="1" as="geometry" />
        </mxCell>
        <mxCell id="60fGq-lb4OGC0_xzezEM-50" style="edgeStyle=orthogonalEdgeStyle;rounded=0;orthogonalLoop=1;jettySize=auto;html=1;entryX=0;entryY=0.5;entryDx=0;entryDy=0;" edge="1" parent="1" source="60fGq-lb4OGC0_xzezEM-31" target="60fGq-lb4OGC0_xzezEM-49">
          <mxGeometry relative="1" as="geometry" />
        </mxCell>
        <mxCell id="60fGq-lb4OGC0_xzezEM-31" value="&lt;b&gt;&lt;font style=&quot;font-size: 14px;&quot;&gt;/&lt;/font&gt;&lt;/b&gt;" style="text;html=1;align=center;verticalAlign=middle;whiteSpace=wrap;rounded=0;" vertex="1" parent="1">
          <mxGeometry x="300" y="-1050" width="60" height="30" as="geometry" />
        </mxCell>
        <mxCell id="60fGq-lb4OGC0_xzezEM-33" value="&lt;b&gt;&lt;font style=&quot;font-size: 14px;&quot;&gt;/tenant/list&lt;/font&gt;&lt;/b&gt;" style="text;html=1;align=center;verticalAlign=middle;whiteSpace=wrap;rounded=0;" vertex="1" parent="1">
          <mxGeometry x="600" y="-960" width="60" height="30" as="geometry" />
        </mxCell>
        <mxCell id="60fGq-lb4OGC0_xzezEM-36" style="edgeStyle=orthogonalEdgeStyle;rounded=0;orthogonalLoop=1;jettySize=auto;html=1;entryX=0;entryY=0.25;entryDx=0;entryDy=0;" edge="1" parent="1" source="60fGq-lb4OGC0_xzezEM-34" target="60fGq-lb4OGC0_xzezEM-33">
          <mxGeometry relative="1" as="geometry" />
        </mxCell>
        <mxCell id="60fGq-lb4OGC0_xzezEM-34" value="&lt;b&gt;&lt;font style=&quot;font-size: 14px;&quot;&gt;/tenant&lt;/font&gt;&lt;/b&gt;" style="text;html=1;align=center;verticalAlign=middle;whiteSpace=wrap;rounded=0;" vertex="1" parent="1">
          <mxGeometry x="450" y="-990" width="60" height="30" as="geometry" />
        </mxCell>
        <mxCell id="60fGq-lb4OGC0_xzezEM-43" style="edgeStyle=orthogonalEdgeStyle;rounded=0;orthogonalLoop=1;jettySize=auto;html=1;entryX=0.75;entryY=1;entryDx=0;entryDy=0;" edge="1" parent="1" source="60fGq-lb4OGC0_xzezEM-38" target="60fGq-lb4OGC0_xzezEM-29">
          <mxGeometry relative="1" as="geometry" />
        </mxCell>
        <mxCell id="60fGq-lb4OGC0_xzezEM-38" value="&lt;b&gt;&lt;font style=&quot;font-size: 14px;&quot;&gt;/register-account&lt;/font&gt;&lt;/b&gt;" style="text;html=1;align=center;verticalAlign=middle;whiteSpace=wrap;rounded=0;" vertex="1" parent="1">
          <mxGeometry x="210" y="-930" width="150" height="30" as="geometry" />
        </mxCell>
        <mxCell id="60fGq-lb4OGC0_xzezEM-44" style="edgeStyle=orthogonalEdgeStyle;rounded=0;orthogonalLoop=1;jettySize=auto;html=1;exitX=0.25;exitY=0;exitDx=0;exitDy=0;entryX=0.75;entryY=1;entryDx=0;entryDy=0;" edge="1" parent="1" source="60fGq-lb4OGC0_xzezEM-40" target="60fGq-lb4OGC0_xzezEM-29">
          <mxGeometry relative="1" as="geometry">
            <Array as="points">
              <mxPoint x="248" y="-890" />
              <mxPoint x="195" y="-890" />
            </Array>
          </mxGeometry>
        </mxCell>
        <mxCell id="60fGq-lb4OGC0_xzezEM-40" value="&lt;b&gt;&lt;font style=&quot;font-size: 14px;&quot;&gt;/reset- password&lt;/font&gt;&lt;/b&gt;" style="text;html=1;align=center;verticalAlign=middle;whiteSpace=wrap;rounded=0;" vertex="1" parent="1">
          <mxGeometry x="210" y="-870" width="150" height="30" as="geometry" />
        </mxCell>
        <mxCell id="60fGq-lb4OGC0_xzezEM-45" value="&lt;b&gt;&lt;font style=&quot;font-size: 14px;&quot;&gt;/project&lt;/font&gt;&lt;/b&gt;" style="text;html=1;align=center;verticalAlign=middle;whiteSpace=wrap;rounded=0;" vertex="1" parent="1">
          <mxGeometry x="450" y="-930" width="60" height="30" as="geometry" />
        </mxCell>
        <mxCell id="60fGq-lb4OGC0_xzezEM-47" value="&lt;b&gt;&lt;font style=&quot;font-size: 14px;&quot;&gt;/client&lt;/font&gt;&lt;/b&gt;" style="text;html=1;align=center;verticalAlign=middle;whiteSpace=wrap;rounded=0;" vertex="1" parent="1">
          <mxGeometry x="450" y="-860" width="60" height="30" as="geometry" />
        </mxCell>
        <mxCell id="60fGq-lb4OGC0_xzezEM-49" value="&lt;b&gt;&lt;font style=&quot;font-size: 14px;&quot;&gt;/account&lt;/font&gt;&lt;/b&gt;" style="text;html=1;align=center;verticalAlign=middle;whiteSpace=wrap;rounded=0;" vertex="1" parent="1">
          <mxGeometry x="450" y="-800" width="60" height="30" as="geometry" />
        </mxCell>
      </root>
    </mxGraphModel>
  </diagram>
</mxfile>
